<svg width="18" height="28" viewBox="0 0 18 28" fill="none" xmlns="http://www.w3.org/2000/svg">
<path d="M18 28H0V0H18V28Z" stroke="#E5E7EB"/>
<path d="M18 24H0V3H18V24Z" stroke="#E5E7EB"/>
<g clip-path="url(#clip0_41_188)">
<path d="M14.625 11.5625C14.625 13.1762 14.1012 14.6668 13.2188 15.8762L17.6695 20.3305C18.109 20.7699 18.109 21.4836 17.6695 21.923C17.2301 22.3625 16.5164 22.3625 16.077 21.923L11.6262 17.4688C10.4168 18.3547 8.92617 18.875 7.3125 18.875C3.27305 18.875 0 15.602 0 11.5625C0 7.52305 3.27305 4.25 7.3125 4.25C11.352 4.25 14.625 7.52305 14.625 11.5625ZM7.3125 16.625C7.97732 16.625 8.63562 16.4941 9.24984 16.2396C9.86405 15.9852 10.4221 15.6123 10.8922 15.1422C11.3623 14.6721 11.7352 14.114 11.9896 13.4998C12.2441 12.8856 12.375 12.2273 12.375 11.5625C12.375 10.8977 12.2441 10.2394 11.9896 9.62516C11.7352 9.01095 11.3623 8.45287 10.8922 7.98277C10.4221 7.51268 9.86405 7.13977 9.24984 6.88536C8.63562 6.63095 7.97732 6.5 7.3125 6.5C6.64768 6.5 5.98938 6.63095 5.37516 6.88536C4.76095 7.13977 4.20287 7.51268 3.73277 7.98277C3.26268 8.45287 2.88977 9.01095 2.63536 9.62516C2.38095 10.2394 2.25 10.8977 2.25 11.5625C2.25 12.2273 2.38095 12.8856 2.63536 13.4998C2.88977 14.114 3.26268 14.6721 3.73277 15.1422C4.20287 15.6123 4.76095 15.9852 5.37516 16.2396C5.98938 16.4941 6.64768 16.625 7.3125 16.625Z" fill="#374151"/>
</g>
<defs>
<clipPath id="clip0_41_188">
<path d="M0 4.25H18V22.25H0V4.25Z" fill="white"/>
</clipPath>
</defs>
</svg>
