<svg width="16" height="21" viewBox="0 0 16 21" fill="none" xmlns="http://www.w3.org/2000/svg">
<path d="M15.75 21H0V0H15.75V21Z" stroke="#E5E7EB"/>
<g clip-path="url(#clip0_41_195)">
<path d="M7.875 10.25C9.06847 10.25 10.2131 9.77589 11.057 8.93198C11.9009 8.08807 12.375 6.94347 12.375 5.75C12.375 4.55653 11.9009 3.41193 11.057 2.56802C10.2131 1.72411 9.06847 1.25 7.875 1.25C6.68153 1.25 5.53693 1.72411 4.69302 2.56802C3.84911 3.41193 3.375 4.55653 3.375 5.75C3.375 6.94347 3.84911 8.08807 4.69302 8.93198C5.53693 9.77589 6.68153 10.25 7.875 10.25ZM6.26836 11.9375C2.80547 11.9375 0 14.743 0 18.2059C0 18.7824 0.467578 19.25 1.04414 19.25H14.7059C15.2824 19.25 15.75 18.7824 15.75 18.2059C15.75 14.743 12.9445 11.9375 9.48164 11.9375H6.26836Z" fill="#374151"/>
</g>
<defs>
<clipPath id="clip0_41_195">
<path d="M0 1.25H15.75V19.25H0V1.25Z" fill="white"/>
</clipPath>
</defs>
</svg>
