<svg width="14" height="20" viewBox="0 0 14 20" fill="none" xmlns="http://www.w3.org/2000/svg">
<path d="M14 20H0V0H14V20Z" stroke="#E5E7EB"/>
<g clip-path="url(#clip0_59_473)">
<path d="M4.97813 2.16875C5.22188 1.94062 5.6 1.94375 5.84375 2.17187C6.70625 2.98125 7.51563 3.85312 8.27188 4.79687C8.61563 4.34687 9.00625 3.85625 9.42813 3.45625C9.675 3.225 10.0563 3.225 10.3031 3.45937C11.3844 4.49062 12.3 5.85312 12.9438 7.14687C13.5781 8.42187 14 9.725 14 10.6437C14 14.6312 10.8813 18 7 18C3.075 18 0 14.6281 0 10.6406C0 9.44062 0.55625 7.975 1.41875 6.525C2.29063 5.05312 3.52188 3.51875 4.97813 2.16875ZM7.05312 15C7.84375 15 8.54375 14.7812 9.20312 14.3437C10.5188 13.425 10.8719 11.5875 10.0813 10.1437C9.94063 9.8625 9.58125 9.84375 9.37813 10.0812L8.59062 10.9969C8.38437 11.2344 8.0125 11.2281 7.81875 10.9812C7.30312 10.325 6.38125 9.15312 5.85625 8.4875C5.65937 8.2375 5.28437 8.23437 5.08437 8.48437C4.02812 9.8125 3.49688 10.65 3.49688 11.5906C3.5 13.7312 5.08125 15 7.05312 15Z" fill="white"/>
</g>
<defs>
<clipPath id="clip0_59_473">
<path d="M0 2H14V18H0V2Z" fill="white"/>
</clipPath>
</defs>
</svg>
