<svg width="16" height="20" viewBox="0 0 16 20" fill="none" xmlns="http://www.w3.org/2000/svg">
<path d="M16 20H0V0H16V20Z" stroke="#E5E7EB"/>
<g clip-path="url(#clip0_59_3980)">
<path d="M15.5657 2.17512C15.8813 2.39387 16.047 2.77199 15.9876 3.15012L13.9876 16.1501C13.9407 16.4532 13.7563 16.7189 13.4876 16.8689C13.2188 17.0189 12.897 17.0376 12.6126 16.9189L8.87508 15.3657L6.73446 17.6814C6.45633 17.9845 6.01883 18.0845 5.63446 17.9345C5.25008 17.7845 5.00008 17.4126 5.00008 17.0001V14.3876C5.00008 14.2626 5.04696 14.1439 5.13133 14.0532L10.3688 8.33762C10.5501 8.14074 10.5438 7.83762 10.3563 7.65012C10.1688 7.46262 9.86571 7.45012 9.66883 7.62824L3.31258 13.2751L0.553206 11.8939C0.221956 11.7282 0.00945635 11.397 8.13452e-05 11.0282C-0.00929365 10.6595 0.184456 10.3157 0.503206 10.1314L14.5032 2.13137C14.8376 1.94074 15.2501 1.95949 15.5657 2.17512Z" fill="white"/>
</g>
<defs>
<clipPath id="clip0_59_3980">
<path d="M0 2H16V18H0V2Z" fill="white"/>
</clipPath>
</defs>
</svg>
